<svg width="26" height="26" viewBox="0 0 26 26" fill="none" xmlns="http://www.w3.org/2000/svg">
<path d="M14.8462 25H2.84615C2.35652 25 1.88695 24.8055 1.54073 24.4593C1.1945 24.1131 1 23.6435 1 23.1538V2.84615C1 2.35652 1.1945 1.88695 1.54073 1.54073C1.88695 1.1945 2.35652 1 2.84615 1H16.6923" stroke="#212121" stroke-width="2" stroke-linecap="round" stroke-linejoin="round"/>
<path d="M19.4615 6.53846L22.2308 1L25 6.53846V22.2308C25 22.9652 24.7082 23.6696 24.1889 24.1889C23.6696 24.7082 22.9652 25 22.2308 25C21.4963 25 20.792 24.7082 20.2726 24.1889C19.7533 23.6696 19.4615 22.9652 19.4615 22.2308V6.53846Z" stroke="#212121" stroke-width="2" stroke-linecap="round" stroke-linejoin="round"/>
<path d="M19.4615 17.6154H25" stroke="#212121" stroke-width="2" stroke-linecap="round" stroke-linejoin="round"/>
<path d="M6.53846 1V25" stroke="#212121" stroke-width="2" stroke-linecap="round" stroke-linejoin="round"/>
<path d="M11.1538 7.46153H14.8462" stroke="#212121" stroke-width="2" stroke-linecap="round" stroke-linejoin="round"/>
</svg>
