<svg width="26" height="20" viewBox="0 0 26 20" fill="none" xmlns="http://www.w3.org/2000/svg">
<path d="M1.89286 2.78571C2.38597 2.78571 2.78571 2.38597 2.78571 1.89286C2.78571 1.39975 2.38597 1 1.89286 1C1.39975 1 1 1.39975 1 1.89286C1 2.38597 1.39975 2.78571 1.89286 2.78571Z" stroke="#FF8038" stroke-width="2" stroke-linecap="round" stroke-linejoin="round"/>
<path d="M8.14286 1.89282H24.2143" stroke="#FF8038" stroke-width="2" stroke-linecap="round" stroke-linejoin="round"/>
<path d="M1.89286 10.8215C2.38597 10.8215 2.78571 10.4217 2.78571 9.92862C2.78571 9.43551 2.38597 9.03577 1.89286 9.03577C1.39975 9.03577 1 9.43551 1 9.92862C1 10.4217 1.39975 10.8215 1.89286 10.8215Z" stroke="#FF8038" stroke-width="2" stroke-linecap="round" stroke-linejoin="round"/>
<path d="M8.14286 9.92859H24.2143" stroke="#FF8038" stroke-width="2" stroke-linecap="round" stroke-linejoin="round"/>
<path d="M1.89286 18.8571C2.38597 18.8571 2.78571 18.4574 2.78571 17.9643C2.78571 17.4712 2.38597 17.0714 1.89286 17.0714C1.39975 17.0714 1 17.4712 1 17.9643C1 18.4574 1.39975 18.8571 1.89286 18.8571Z" stroke="#FF8038" stroke-width="2" stroke-linecap="round" stroke-linejoin="round"/>
<path d="M8.14286 17.9642H24.2143" stroke="#FF8038" stroke-width="2" stroke-linecap="round" stroke-linejoin="round"/>
</svg>
