<svg width="28" height="8" viewBox="0 0 28 8" fill="none" xmlns="http://www.w3.org/2000/svg">
<path d="M24 7C25.6569 7 27 5.65685 27 4C27 2.34315 25.6569 1 24 1C22.3432 1 21 2.34315 21 4C21 5.65685 22.3432 7 24 7Z" stroke="#121212" stroke-width="1.8" stroke-linecap="round" stroke-linejoin="round"/>
<path d="M14 7C15.6569 7 17 5.65685 17 4C17 2.34315 15.6569 1 14 1C12.3431 1 11 2.34315 11 4C11 5.65685 12.3431 7 14 7Z" stroke="#121212" stroke-width="1.8" stroke-linecap="round" stroke-linejoin="round"/>
<path d="M4 7C5.65685 7 7 5.65685 7 4C7 2.34315 5.65685 1 4 1C2.34315 1 1 2.34315 1 4C1 5.65685 2.34315 7 4 7Z" stroke="#121212" stroke-width="1.8" stroke-linecap="round" stroke-linejoin="round"/>
</svg>
