<svg width="24" height="24" viewBox="0 0 24 24" fill="none" xmlns="http://www.w3.org/2000/svg">
<path d="M20 23C21.6569 23 23 21.6569 23 20C23 18.3431 21.6569 17 20 17C18.3432 17 17 18.3431 17 20C17 21.6569 18.3432 23 20 23Z" stroke="#121212" stroke-width="1.8" stroke-linecap="round" stroke-linejoin="round"/>
<path d="M20 7C21.6569 7 23 5.65685 23 4C23 2.34315 21.6569 1 20 1C18.3431 1 17 2.34315 17 4C17 5.65685 18.3431 7 20 7Z" stroke="#121212" stroke-width="1.8" stroke-linecap="round" stroke-linejoin="round"/>
<path d="M12 15C13.6569 15 15 13.6569 15 12C15 10.3431 13.6569 9 12 9C10.3431 9 9 10.3431 9 12C9 13.6569 10.3431 15 12 15Z" stroke="#121212" stroke-width="1.8" stroke-linecap="round" stroke-linejoin="round"/>
<path d="M4 7C5.65685 7 7 5.65685 7 4C7 2.34315 5.65685 1 4 1C2.34315 1 1 2.34315 1 4C1 5.65685 2.34315 7 4 7Z" stroke="#121212" stroke-width="1.8" stroke-linecap="round" stroke-linejoin="round"/>
<path d="M4 23C5.65685 23 7 21.6569 7 20C7 18.3431 5.65685 17 4 17C2.34315 17 1 18.3431 1 20C1 21.6569 2.34315 23 4 23Z" stroke="#121212" stroke-width="1.8" stroke-linecap="round" stroke-linejoin="round"/>
</svg>
