<svg width="26" height="26" viewBox="0 0 26 26" fill="none" xmlns="http://www.w3.org/2000/svg">
<path d="M10.4928 19.7355L14.3892 23.6266C14.6311 23.8685 14.9308 24.0445 15.2599 24.138C15.5889 24.2315 15.9364 24.2394 16.2693 24.1608C16.6023 24.0823 16.9096 23.92 17.1622 23.6893C17.4148 23.4586 17.6042 23.1671 17.7125 22.8426L24.1071 3.64086C24.2252 3.28741 24.2425 2.90804 24.157 2.54531C24.0715 2.18259 23.8866 1.85087 23.6231 1.58736C23.3596 1.32384 23.0279 1.13897 22.6651 1.05348C22.3024 0.967991 21.9231 0.985263 21.5696 1.10336L2.36781 7.50336C2.04435 7.61205 1.75393 7.80142 1.52401 8.05357C1.29409 8.30572 1.13225 8.61233 1.05378 8.94443C0.975318 9.27652 0.982816 9.62314 1.07557 9.95153C1.16833 10.2799 1.34327 10.5792 1.58388 10.8212L6.47853 15.7212L6.31246 21.9087L10.4928 19.7355Z" stroke="#DEDEDE" stroke-width="1.78571" stroke-linecap="round" stroke-linejoin="round"/>
<path d="M23.5339 1.50342L6.47852 15.7213" stroke="#DEDEDE" stroke-width="1.78571" stroke-linecap="round" stroke-linejoin="round"/>
</svg>
